<svg viewBox="-88,-92,176,184" xmlns="http://www.w3.org/2000/svg" xmlns:xlink="http://www.w3.org/1999/xlink">
  <defs>
    <radialGradient id="bps"><stop offset="80%" stop-color="#444444" stop-opacity="0.33"></stop><stop offset="87%" stop-color="#333333" stop-opacity="0.23"></stop><stop offset="100%" stop-color="#000000" stop-opacity="0"></stop></radialGradient>
    <g id="bp"><circle r="6.1" fill="url(#bps)" stroke="none"></circle><circle r="5" cx="0" cy="0" fill="#f4ffed" stroke-width="0.85"></circle><circle r="4" cx="0" cy="0" fill="#f4ffed" stroke-width="0.34"></circle><path d="M-0.23,-3.077L0.23,-3.077L0.92,2.46L-0.92,2.46Z" stroke="none"></path><path d="M-0.69,-1.69V1.077L-2.308,2.461Z" stroke="none"></path><path d="M0.69,-1.69V1.077L2.308,2.461Z" stroke="none"></path></g>
    <use id="p-blue-0" xlink:href="#bp" fill="#0b75c1" stroke="#0b75c1"></use><use id="p-green-0" xlink:href="#bp" fill="#0ca80d" stroke="#0ca80d" transform="rotate(90,0,0)"></use><use id="p-red-0" xlink:href="#bp" fill="#e43415" stroke="#e43415" transform="rotate(180,0,0)"></use><use id="p-yellow-0" xlink:href="#bp" fill="#fed105" stroke="#fed105" transform="rotate(270,0,0)"></use>
    <use id="p-blue-1" xlink:href="#p-blue-0" transform="rotate(90,0,0)"></use><use id="p-green-1" xlink:href="#p-green-0" transform="rotate(90,0,0)"></use><use id="p-red-1" xlink:href="#p-red-0" transform="rotate(90,0,0)"></use><use id="p-yellow-1" xlink:href="#p-yellow-0" transform="rotate(90,0,0)"></use>
    <use id="p-blue-2" xlink:href="#p-blue-0" transform="rotate(180,0,0)"></use><use id="p-green-2" xlink:href="#p-green-0" transform="rotate(180,0,0)"></use><use id="p-red-2" xlink:href="#p-red-0" transform="rotate(180,0,0)"></use><use id="p-yellow-2" xlink:href="#p-yellow-0" transform="rotate(180,0,0)"></use>
    <use id="p-blue-3" xlink:href="#p-blue-0" transform="rotate(270,0,0)"></use><use id="p-green-3" xlink:href="#p-green-0" transform="rotate(270,0,0)"></use><use id="p-red-3" xlink:href="#p-red-0" transform="rotate(270,0,0)"></use><use id="p-yellow-3" xlink:href="#p-yellow-0" transform="rotate(270,0,0)"></use>
    <g id="win"><rect width="12" height="6" x="-6" y="-3" fill="#000" fill-opacity="50%"></rect><text alignment-baseline="central" dominant-baseline="central" text-anchor="middle" fill="#fff" font-size="4.2" font-family="monospace" font-weight="bold">Win</text></g>
    <rect id="j" x="-3" y="-33" width="6" height="66" fill="#fff" fill-opacity="40%" stroke="#fff" stroke-opacity="80%" stroke-width="0.5"></rect>
    <path id="ar" d="M-2 -2.5L0 -0.5L2 -2.5M-2 0.5L0 2.5L2 0.5" fill="none" stroke-linejoin="round" stroke-linecap="round"></path>
    <path id="ar2" d="M2.5 80H-0.5V75l-1.8 1.8h3.6l-1.8 -1.8" fill="none" stroke="#fff" stroke-width="1.4" stroke-opacity="90%" stroke-linejoin="round" stroke-linecap="round"></path>
    <rect id="rv" rx="2" ry="2" x="-5.8" y="-7.8" width="11.6" height="15.6"></rect><rect id="rh" rx="2" ry="2" x="-7.8" y="-5.8" width="15.6" height="11.6"></rect><rect id="rv2" rx="2" ry="2" x="-5.3" y="-5.8" width="10.6" height="11.6"></rect><rect id="rh2" rx="2" ry="2" x="-5.8" y="-5.3" width="11.6" height="10.6"></rect>
    <path id="des" d="M0,0L-15,15H15Z" stroke-width="0.4" stroke="#0a1d42"></path>
    <path id="t3" d="M-6.66 6.95A0.5 0.5 0 0 0 -6.31 7.8H5.8A2 2 0 0 0 7.8 5.8V-6.31A0.5 0.5 0 0 0 6.95 -6.66Z"></path>
    <path id="t7" d="M6.66 -6.95A0.5 0.5 0 0 0 6.31 -7.8H-5.8A2 2 0 0 0 -7.8 -5.8V6.31A0.5 0.5 0 0 0 -6.95 6.66Z"></path>
    <path id="t1" d="M6.66 6.95A0.5 0.5 0 0 1 6.31 7.8H-5.8A2 2 0 0 1 -7.8 5.8V-6.31A0.5 0.5 0 0 1 -6.95 -6.66Z"></path>
    <path id="t9" d="M-6.66 -6.95A0.5 0.5 0 0 1 -6.31 -7.8H5.8A2 2 0 0 1 7.8 -5.8V6.31A0.5 0.5 0 0 1 6.95 6.66Z"></path>
    <circle id="c" r="4" fill="#fff" fill-opacity="90%"></circle>
    <g id="ori"><rect width="30" height="30" x="-15" y="-15" rx="2" ry="2"></rect><circle r="5.2" cx="6.2" cy="6.2" fill="#fff" fill-opacity="50%"></circle><circle r="5.2" cx="-6.2" cy="6.2" fill="#fff" fill-opacity="50%"></circle><circle r="5.2" cx="6.2" cy="-6.2" fill="#fff" fill-opacity="50%"></circle><circle r="5.2" cx="-6.2" cy="-6.2" fill="#fff" fill-opacity="50%"></circle></g>
    <g id="first"><path d="M-46 72.5H-51V85h17.5Z" stroke-width="1" stroke-linejoin="round"></path><text alignment-baseline="central" dominant-baseline="central" text-anchor="middle" x="-46" y="80" fill="#fff" stroke="none" font-size="7" font-family="emoji" fill-opacity="100%">✈️</text></g>
    <radialGradient id="red"><stop offset="0%" stop-color="#ff5744"></stop><stop offset="100%" stop-color="#fb4a38"></stop></radialGradient>
    <radialGradient id="green"><stop offset="0%" stop-color="#63e2a3"></stop><stop offset="100%" stop-color="#18de8d"></stop></radialGradient>
    <radialGradient id="blue"><stop offset="0%" stop-color="#05c0ea"></stop><stop offset="100%" stop-color="#0fa3e3"></stop></radialGradient>
    <radialGradient id="yellow"><stop offset="0%" stop-color="#fddc04"></stop><stop offset="100%" stop-color="#fecc08"></stop></radialGradient>
  </defs>
  <use xlink:href="#j" x="42.5"></use><use xlink:href="#j" x="42.5" transform="rotate(90,0,0)"></use><use xlink:href="#j" x="42.5" transform="rotate(180,0,0)"></use><use xlink:href="#j" x="42.5" transform="rotate(270,0,0)"></use>
  <use xlink:href="#ar" x="42.5" y="18" stroke="url(#green)"></use><use xlink:href="#ar" x="42.5" y="-18" stroke="url(#green)"></use><use xlink:href="#ar" x="42.5" y="18" stroke="url(#red)" transform="rotate(90,0,0)"></use><use xlink:href="#ar" x="42.5" y="-18" stroke="url(#red)" transform="rotate(90,0,0)"></use><use xlink:href="#ar" x="42.5" y="18" stroke="url(#yellow)" transform="rotate(180,0,0)"></use><use xlink:href="#ar" x="42.5" y="-18" stroke="url(#yellow)" transform="rotate(180,0,0)"></use><use xlink:href="#ar" x="42.5" y="18" stroke="url(#blue)" transform="rotate(270,0,0)"></use><use xlink:href="#ar" x="42.5" y="-18" stroke="url(#blue)" transform="rotate(270,0,0)"></use>
  <use xlink:href="#rv" x="0" y="-78" fill="url(#red)"></use><use xlink:href="#rv" x="-12" y="-78" fill="url(#green)"></use><use xlink:href="#rv" x="-24" y="-78" fill="url(#blue)"></use><use xlink:href="#rv" x="12" y="-78" fill="url(#yellow)"></use><use xlink:href="#rv" x="24" y="-78" fill="url(#blue)"></use>
  <use xlink:href="#rh" x="-38" y="-64" fill="url(#red)"></use><use xlink:href="#rh" x="-38" y="-52" fill="url(#green)"></use><use xlink:href="#rh" x="38" y="-64" fill="url(#red)"></use><use xlink:href="#rh" x="38" y="-52" fill="url(#yellow)"></use>
  <use xlink:href="#t3" x="-38" y="-78" fill="url(#yellow)"></use><use xlink:href="#t1" x="38" y="-78" fill="url(#green)"></use><use xlink:href="#t7" x="38" y="-38" fill="url(#blue)"></use><use xlink:href="#t3" x="38" y="-38" fill="url(#green)"></use><use xlink:href="#t9" x="-38" y="-38" fill="url(#blue)"></use><use xlink:href="#t1" x="-38" y="-38" fill="url(#yellow)"></use>
  <use xlink:href="#rv" x="0" y="78" fill="url(#blue)"></use><use xlink:href="#rv" x="-12" y="78" fill="url(#green)"></use><use xlink:href="#rv" x="-24" y="78" fill="url(#red)"></use><use xlink:href="#rv" x="12" y="78" fill="url(#yellow)"></use><use xlink:href="#rv" x="24" y="78" fill="url(#red)"></use>
  <use xlink:href="#rh" x="-38" y="64" fill="url(#blue)"></use><use xlink:href="#rh" x="-38" y="52" fill="url(#green)"></use><use xlink:href="#rh" x="38" y="64" fill="url(#blue)"></use><use xlink:href="#rh" x="38" y="52" fill="url(#yellow)"></use>
  <use xlink:href="#t9" x="-38" y="78" fill="url(#yellow)"></use><use xlink:href="#t7" x="38" y="78" fill="url(#green)"></use>
  <use xlink:href="#rh" x="-78" y="0" fill="url(#green)"></use><use xlink:href="#rh" x="-78" y="-12" fill="url(#red)"></use><use xlink:href="#rh" x="-78" y="-24" fill="url(#yellow)"></use><use xlink:href="#rh" x="-78" y="12" fill="url(#blue)"></use><use xlink:href="#rh" x="-78" y="24" fill="url(#yellow)"></use>
  <use xlink:href="#rv" x="-64" y="38" fill="url(#green)"></use><use xlink:href="#rv" x="-52" y="38" fill="url(#blue)"></use><use xlink:href="#rv" x="-64" y="-38" fill="url(#green)"></use><use xlink:href="#rv" x="-52" y="-38" fill="url(#red)"></use>
  <use xlink:href="#t3" x="-78" y="-38" fill="url(#blue)"></use><use xlink:href="#t9" x="-78" y="38" fill="url(#red)"></use>
  <use xlink:href="#rh" x="78" y="0" fill="url(#yellow)"></use><use xlink:href="#rh" x="78" y="-12" fill="url(#red)"></use><use xlink:href="#rh" x="78" y="-24" fill="url(#green)"></use><use xlink:href="#rh" x="78" y="12" fill="url(#blue)"></use><use xlink:href="#rh" x="78" y="24" fill="url(#green)"></use>
  <use xlink:href="#rv" x="64" y="38" fill="url(#yellow)"></use><use xlink:href="#rv" x="52" y="38" fill="url(#blue)"></use><use xlink:href="#rv" x="64" y="-38" fill="url(#yellow)"></use><use xlink:href="#rv" x="52" y="-38" fill="url(#red)"></use>
  <use xlink:href="#t1" x="78" y="-38" fill="url(#blue)"></use><use xlink:href="#t7" x="78" y="38" fill="url(#red)"></use>
  <use xlink:href="#t9" x="38" y="38" fill="url(#green)"></use><use xlink:href="#t1" x="38" y="38" fill="url(#red)"></use><use xlink:href="#t3" x="-38" y="38" fill="url(#red)"></use><use xlink:href="#t7" x="-38" y="38" fill="url(#yellow)"></use>
  <use xlink:href="#rv2" x="64.5" y="0" fill="url(#yellow)"></use><use xlink:href="#rv2" x="53.5" y="0" fill="url(#yellow)"></use><use xlink:href="#rv2" x="42.5" y="0" fill="url(#yellow)"></use><use xlink:href="#rv2" x="31.5" y="0" fill="url(#yellow)"></use><use xlink:href="#rv2" x="20.5" y="0" fill="url(#yellow)"></use><use xlink:href="#c" x="42.5"></use>
  <use xlink:href="#rv2" x="-64.5" y="0" fill="url(#green)"></use><use xlink:href="#rv2" x="-53.5" y="0" fill="url(#green)"></use><use xlink:href="#rv2" x="-42.5" y="0" fill="url(#green)"></use><use xlink:href="#rv2" x="-31.5" y="0" fill="url(#green)"></use><use xlink:href="#rv2" x="-20.5" y="0" fill="url(#green)"></use><use xlink:href="#c" x="-42.5"></use>
  <use xlink:href="#rh2" x="0" y="64.5" fill="url(#blue)"></use><use xlink:href="#rh2" x="0" y="53.5" fill="url(#blue)"></use><use xlink:href="#rh2" x="0" y="42.5" fill="url(#blue)"></use><use xlink:href="#rh2" x="0" y="31.5" fill="url(#blue)"></use><use xlink:href="#rh2" x="0" y="20.5" fill="url(#blue)"></use><use xlink:href="#c" y="42.5"></use>
  <use xlink:href="#rh2" x="0" y="-64.5" fill="url(#red)"></use><use xlink:href="#rh2" x="0" y="-53.5" fill="url(#red)"></use><use xlink:href="#rh2" x="0" y="-42.5" fill="url(#red)"></use><use xlink:href="#rh2" x="0" y="-31.5" fill="url(#red)"></use><use xlink:href="#rh2" x="0" y="-20.5" fill="url(#red)"></use><use xlink:href="#c" y="-42.5"></use>
  <use xlink:href="#ar2"></use><use xlink:href="#ar2" transform="rotate(90,0,0)"></use><use xlink:href="#ar2" transform="rotate(180,0,0)"></use><use xlink:href="#ar2" transform="rotate(270,0,0)"></use>
  <use xlink:href="#des" fill="url(#blue)"></use><use xlink:href="#des" fill="url(#green)" transform="rotate(90,0,0)"></use><use xlink:href="#des" fill="url(#red)" transform="rotate(180,0,0)"></use><use xlink:href="#des" fill="url(#yellow)" transform="rotate(270,0,0)"></use>
  <use xlink:href="#ori" x="-68" y="68" fill="url(#blue)"></use><use xlink:href="#ori" x="-68" y="-68" fill="url(#green)"></use><use xlink:href="#ori" x="68" y="-68" fill="url(#red)"></use><use xlink:href="#ori" x="68" y="68" fill="url(#yellow)"></use>
  <use xlink:href="#first" fill="url(#blue)" stroke="url(#blue)"></use><use xlink:href="#first" fill="url(#green)" transform="rotate(90,0,0)" stroke="url(#green)"></use><use xlink:href="#first" fill="url(#red)" transform="rotate(180,0,0)" stroke="url(#red)"></use><use xlink:href="#first" fill="url(#yellow)" transform="rotate(270,0,0)" stroke="url(#yellow)"></use>
  <use xlink:href="#p-blue-0" x="-74.2" y="61.8"></use><use xlink:href="#p-blue-0" x="-61.8" y="61.8"></use><use xlink:href="#p-blue-0" x="-74.2" y="74.2"></use><use xlink:href="#p-blue-0" x="-61.8" y="74.2"></use>
  <use xlink:href="#p-green-0" x="-61.8" y="-74.2"></use><use xlink:href="#p-green-0" x="-61.8" y="-61.8"></use><use xlink:href="#p-green-0" x="-74.2" y="-74.2"></use><use xlink:href="#p-green-0" x="-74.2" y="-61.8"></use>
  <use xlink:href="#p-red-0" x="74.2" y="-61.8"></use><use xlink:href="#p-red-0" x="61.8" y="-61.8"></use><use xlink:href="#p-red-0" x="74.2" y="-74.2"></use><use xlink:href="#p-red-0" x="61.8" y="-74.2"></use>
  <use xlink:href="#p-yellow-0" x="61.8" y="74.2"></use><use xlink:href="#p-yellow-0" x="61.8" y="61.8"></use><use xlink:href="#p-yellow-0" x="74.2" y="74.2"></use><use xlink:href="#p-yellow-0" x="74.2" y="61.8"></use>
</svg>
